<svg version="1" xmlns="http://www.w3.org/2000/svg" width="3225.333" height="3225.333" viewBox="0 0 2419.000000 2419.000000"><path d="M411.6 47.7c-.1.1-4.6.4-10.1.7-5.5.3-11.6.8-13.5 1.1-1.9.2-5.5.7-8 1-9.5 1.3-11.8 1.7-21.5 3.6-53.4 10.8-100.8 33.1-145.2 68.5-11.5 9.2-35.9 33.3-45.9 45.4-25.4 30.6-45.5 65.8-58.2 102.1-3.4 9.5-4.6 13.3-6.7 20.9-.1.3-.7 2.5-1.4 5-2.4 8.2-6.4 28-7.7 37.5-.3 2.7-.8 5.9-1 7-.2 1.1-.7 5.1-1.1 9-1.1 9.5-1 1679.2 0 1688 1.8 15.3 2.4 19.2 5.3 35 1.2 6.8 6.5 26.7 9.7 36.5 6.2 19 15.1 39.4 25.7 59 4.3 7.8 22.9 36 27.7 41.9 9.7 11.8 14.5 17.4 20.2 23.4 3.6 3.7 6.8 7.1 7.1 7.5 3.5 4.6 24.6 22.8 38.6 33.2 44 32.9 100.2 55.9 152.9 62.6 2.2.3 5.4.7 7 .9 1.7.2 7.3.8 12.5 1.2 12.1.9 1661.1.9 1674.5 0 5.5-.4 11.1-.9 12.5-1.1 1.4-.2 4.8-.7 7.5-1 12.1-1.5 24.9-3.9 37.5-7.3 5.2-1.4 10-2.6 10.5-2.7 16.7-4 53.4-19.6 73.5-31.3 17.8-10.4 36.3-23.4 51.4-36.3 6.1-5.1 30.5-29.7 36.3-36.5 14.6-17.1 26.2-33.8 38.3-55 16.3-28.6 29.7-65.7 36.4-101 .2-1.1.9-5.6 1.6-10 .6-4.4 1.3-9.1 1.5-10.4.2-1.3.8-6.7 1.2-12 1-11.7 1-1668.1.1-1680.1-2-24.4-6.9-49.3-14.5-73.5-4.6-14.5-16.2-42.6-21.4-51.9-.6-1.1-2.3-4-3.6-6.5-5-9.1-12.7-21.6-13.5-21.9-.4-.2-.8-.8-.8-1.3 0-1.3-11.7-17.5-20.9-28.8-13-16.2-36.6-39.1-54.1-52.7-7.4-5.7-28.7-20.4-29.6-20.4-.3 0-1.8-.8-3.2-1.9-1.5-1-5.4-3.3-8.7-5.1-3.3-1.8-8-4.4-10.5-5.7-2.4-1.4-8.9-4.5-14.5-6.9-5.5-2.5-10.9-4.9-12-5.4-6-2.6-25.5-9.4-33.5-11.6-16.5-4.5-35.4-8.4-48.5-9.9-2.7-.4-6.1-.8-7.5-1-1.4-.3-7.7-.7-14-1.1-9.6-.5-1657.8-1.3-1658.4-.7z"/></svg>